<svg width="300" height="300" viewBox="0 0 300 300" fill="none" xmlns="http://www.w3.org/2000/svg">
<path opacity="0.1" d="M24 90C27.3137 90 30 87.3137 30 84C30 80.6863 27.3137 78 24 78C20.6863 78 18 80.6863 18 84C18 87.3137 20.6863 90 24 90Z" fill="white"/>
<path opacity="0.1" d="M258 24C261.314 24 264 21.3137 264 18C264 14.6863 261.314 12 258 12C254.686 12 252 14.6863 252 18C252 21.3137 254.686 24 258 24Z" fill="white"/>
<path opacity="0.1" d="M186 192C192.627 192 198 186.627 198 180C198 173.373 192.627 168 186 168C179.373 168 174 173.373 174 180C174 186.627 179.373 192 186 192Z" fill="white"/>
<path opacity="0.1" d="M114 144C117.314 144 120 141.314 120 138C120 134.686 117.314 132 114 132C110.686 132 108 134.686 108 138C108 141.314 110.686 144 114 144Z" fill="white"/>
<path opacity="0.1" d="M222 138C225.314 138 228 135.314 228 132C228 128.686 225.314 126 222 126C218.686 126 216 128.686 216 132C216 135.314 218.686 138 222 138Z" fill="white"/>
<path opacity="0.1" d="M258 102C261.314 102 264 99.3137 264 96C264 92.6863 261.314 90 258 90C254.686 90 252 92.6863 252 96C252 99.3137 254.686 102 258 102Z" fill="white"/>
<path opacity="0.1" d="M48 276C51.3137 276 54 273.314 54 270C54 266.686 51.3137 264 48 264C44.6863 264 42 266.686 42 270C42 273.314 44.6863 276 48 276Z" fill="white"/>
<path opacity="0.1" d="M174 240C177.314 240 180 237.314 180 234C180 230.686 177.314 228 174 228C170.686 228 168 230.686 168 234C168 237.314 170.686 240 174 240Z" fill="white"/>
<path opacity="0.1" d="M78 228C81.3137 228 84 225.314 84 222C84 218.686 81.3137 216 78 216C74.6863 216 72 218.686 72 222C72 225.314 74.6863 228 78 228Z" fill="white"/>
<path opacity="0.1" d="M282 198C285.314 198 288 195.314 288 192C288 188.686 285.314 186 282 186C278.686 186 276 188.686 276 192C276 195.314 278.686 198 282 198Z" fill="white"/>
<path opacity="0.1" d="M90 36C96.6274 36 102 30.6274 102 24C102 17.3726 96.6274 12 90 12C83.3726 12 78 17.3726 78 24C78 30.6274 83.3726 36 90 36Z" fill="white"/>
<path opacity="0.1" d="M54 168C57.3137 168 60 165.314 60 162C60 158.686 57.3137 156 54 156C50.6863 156 48 158.686 48 162C48 165.314 50.6863 168 54 168Z" fill="white"/>
<path opacity="0.1" d="M180 60C183.314 60 186 57.3137 186 54C186 50.6863 183.314 48 180 48C176.686 48 174 50.6863 174 54C174 57.3137 176.686 60 180 60Z" fill="white"/>
<path opacity="0.1" d="M150 96C153.314 96 156 93.3137 156 90C156 86.6863 153.314 84 150 84C146.686 84 144 86.6863 144 90C144 93.3137 146.686 96 150 96Z" fill="white"/>
<path opacity="0.1" d="M126 282C132.627 282 138 276.627 138 270C138 263.373 132.627 258 126 258C119.373 258 114 263.373 114 270C114 276.627 119.373 282 126 282Z" fill="white"/>
<path opacity="0.1" d="M252 276C255.314 276 258 273.314 258 270C258 266.686 255.314 264 252 264C248.686 264 246 266.686 246 270C246 273.314 248.686 276 252 276Z" fill="white"/>
</svg>
