<?xml version="1.0" standalone="no"?>
<!DOCTYPE svg PUBLIC "-//W3C//DTD SVG 20010904//EN"
 "http://www.w3.org/TR/2001/REC-SVG-20010904/DTD/svg10.dtd">
<svg version="1.0" xmlns="http://www.w3.org/2000/svg"
 width="710.000000pt" height="710.000000pt" viewBox="0 0 710.000000 710.000000"
 preserveAspectRatio="xMidYMid meet">
<metadata>
Created by potrace 1.14, written by Peter Selinger 2001-2017
</metadata>
<g transform="translate(0.000000,710.000000) scale(0.100000,-0.100000)"
fill="#000000" stroke="none">
<path d="M2638 7095 c-2 -2 -30 -6 -64 -9 -33 -3 -83 -11 -110 -16 -27 -6 -62
-13 -78 -16 -108 -21 -296 -106 -393 -178 -35 -25 -63 -44 -63 -42 0 2 -31
-26 -68 -62 -67 -66 -169 -192 -180 -222 -3 -8 -11 -22 -19 -31 -41 -48 -136
-315 -158 -444 -25 -148 -25 -445 -1 -595 2 -14 7 -52 11 -85 7 -66 11 -98 20
-165 3 -25 8 -67 11 -95 3 -27 7 -59 8 -70 1 -11 6 -51 10 -90 10 -94 15 -123
27 -170 15 -55 56 -123 80 -130 32 -10 162 -3 196 10 17 8 33 11 36 9 7 -7 23
18 41 65 23 59 23 129 2 301 -2 14 -6 54 -10 90 -4 36 -9 76 -11 90 -2 14 -6
50 -10 80 -7 61 -20 174 -32 265 -15 116 -9 383 10 475 35 164 112 309 222
422 30 31 55 54 55 51 0 -4 10 3 23 14 32 31 133 85 202 110 150 54 356 68
496 33 259 -63 416 -245 504 -582 l12 -47 -36 0 c-99 0 -200 -26 -286 -74 -19
-11 -25 -13 -43 -16 -25 -4 -103 -158 -122 -241 -7 -30 -16 -62 -20 -70 -5 -8
-11 -31 -14 -50 -6 -37 -12 -72 -22 -130 -18 -103 -25 -153 -29 -185 -14 -139
-19 -242 -17 -372 2 -132 5 -163 27 -230 23 -70 33 -84 95 -144 62 -60 101
-83 177 -105 7 -1 10 -13 8 -25 -3 -12 -7 -56 -10 -98 -3 -42 -7 -87 -9 -101
-2 -14 -7 -52 -10 -85 -7 -59 -15 -124 -21 -156 -2 -9 -6 -40 -10 -70 -10 -89
-25 -180 -40 -259 -9 -41 -17 -85 -20 -98 -2 -13 -6 -31 -9 -40 -3 -9 -8 -33
-11 -52 -3 -19 -11 -55 -16 -80 -6 -25 -13 -54 -15 -65 -2 -11 -33 -101 -70
-200 -36 -99 -70 -193 -75 -210 -5 -16 -18 -41 -29 -55 -65 -82 -122 -157
-170 -223 -30 -42 -64 -79 -75 -83 -11 -4 -42 -17 -70 -30 -196 -89 -263 -112
-355 -124 -52 -6 -107 -13 -123 -16 -15 -2 -51 -6 -80 -9 -28 -2 -61 -6 -73
-9 -11 -2 -47 -7 -80 -10 -32 -4 -85 -11 -117 -17 -31 -5 -61 -7 -66 -4 -6 3
-12 2 -15 -3 -2 -4 -23 -9 -46 -10 -22 -2 -75 -19 -118 -39 -42 -19 -109 -50
-148 -68 -50 -23 -80 -44 -100 -71 -16 -22 -32 -40 -36 -42 -5 -2 -8 -10 -8
-17 0 -7 -3 -15 -7 -17 -7 -2 -63 -77 -150 -198 -15 -21 -43 -108 -110 -345
-6 -22 -5 -162 1 -315 4 -91 9 -112 41 -190 8 -19 31 -79 51 -132 36 -93 42
-102 128 -187 139 -137 153 -148 204 -167 26 -10 52 -21 57 -24 27 -19 316
-140 346 -145 19 -3 59 -12 89 -20 109 -28 376 -84 425 -90 28 -3 75 -10 105
-15 30 -5 75 -12 100 -15 25 -3 70 -10 100 -15 30 -5 73 -12 95 -14 22 -3 74
-11 115 -17 41 -5 95 -12 120 -14 25 -3 61 -7 80 -11 19 -3 49 -7 65 -9 17 -2
48 -5 70 -9 22 -3 65 -8 95 -12 30 -3 64 -7 75 -9 35 -5 128 -14 200 -20 39
-3 95 -8 125 -10 30 -3 96 -7 145 -10 50 -4 106 -8 125 -10 55 -7 455 -2 455
5 0 1 43 3 95 5 83 4 129 9 138 15 2 3 6 4 47 14 17 4 37 10 45 13 8 3 20 7
25 8 6 2 57 17 115 35 94 29 122 37 141 39 7 1 28 18 114 94 195 171 187 162
252 297 127 263 122 252 139 345 2 11 8 38 14 60 6 22 13 51 16 65 2 14 16 77
30 140 33 145 30 133 39 210 3 36 8 76 10 90 2 14 6 45 9 70 4 25 8 61 11 80
3 19 7 53 10 75 2 22 7 51 10 65 2 14 7 50 10 80 2 30 7 66 9 80 3 14 7 57 11
95 3 39 8 77 10 85 2 8 6 42 10 75 3 33 8 74 10 90 3 17 7 53 10 80 8 71 14
122 21 180 7 58 9 77 18 162 4 34 8 70 10 80 2 10 7 48 10 85 4 37 9 77 11 90
2 13 6 43 9 68 15 121 19 168 20 197 1 18 3 33 6 33 3 0 5 10 6 23 1 36 13
150 29 267 7 60 14 113 20 170 4 30 8 66 10 80 2 14 7 48 10 75 3 28 7 64 10
80 2 17 6 47 9 69 9 67 13 72 54 74 58 2 72 5 72 12 0 4 19 13 43 20 23 8 50
21 61 29 10 9 19 14 20 13 0 -2 13 1 27 8 31 14 102 126 114 180 2 8 15 55 30
104 28 95 72 360 82 491 4 44 7 159 7 255 0 141 -3 186 -18 230 -22 69 -24 74
-23 80 0 9 -97 105 -133 131 -35 26 -304 122 -370 133 -19 3 -44 8 -55 11 -27
6 -213 45 -245 51 -14 2 -36 7 -50 10 -14 3 -34 8 -45 10 -94 18 -127 24 -170
29 -27 3 -57 8 -65 10 -8 2 -37 7 -65 11 -80 10 -98 12 -130 18 -16 3 -48 8
-70 11 -22 4 -51 8 -65 11 -26 5 -94 14 -145 19 -16 1 -51 5 -77 9 -27 3 -68
8 -93 11 -25 3 -64 7 -87 10 -89 10 -135 15 -188 20 -30 3 -68 7 -85 10 -16 2
-83 7 -149 11 -166 9 -160 7 -164 56 -2 18 -7 51 -13 73 -6 22 -13 47 -14 55
-15 63 -48 166 -61 185 -9 13 -15 27 -14 30 5 15 -108 228 -130 245 -3 3 -13
15 -22 28 -37 55 -143 156 -218 208 -82 57 -231 123 -312 138 -13 3 -23 5 -23
6 0 12 -335 36 -347 25z"/>
</g>
</svg>
